<mxfile host="65bd71144e">
    <diagram id="WgUfSuzCoiKXmXvn8zG4" name="Page-1">
        <mxGraphModel dx="896" dy="451" grid="1" gridSize="10" guides="1" tooltips="1" connect="1" arrows="1" fold="1" page="1" pageScale="1" pageWidth="827" pageHeight="1169" math="0" shadow="0">
            <root>
                <mxCell id="0"/>
                <mxCell id="1" parent="0"/>
                <mxCell id="start" value="Start" style="ellipse;whiteSpace=wrap;html=1;" parent="1" vertex="1">
                    <mxGeometry x="380" y="40" width="100" height="50" as="geometry"/>
                </mxCell>
                <mxCell id="input_N" value="กรอก N (ขนาดของอาเรย์)" style="parallelogram;whiteSpace=wrap;html=1;" parent="1" vertex="1">
                    <mxGeometry x="330" y="120" width="200" height="50" as="geometry"/>
                </mxCell>
                <mxCell id="declare_array" value="ประกาศอาเรย์ขนาด N" style="rectangle;whiteSpace=wrap;html=1;" parent="1" vertex="1">
                    <mxGeometry x="330" y="200" width="200" height="50" as="geometry"/>
                </mxCell>
                <mxCell id="loop_input" value="วนลูป i=0 ถึง N-1 รับค่า arr[i]" style="rectangle;whiteSpace=wrap;html=1;" parent="1" vertex="1">
                    <mxGeometry x="330" y="280" width="200" height="50" as="geometry"/>
                </mxCell>
                <mxCell id="output_index" value="แสดง Index ของอาเรย์" style="parallelogram;whiteSpace=wrap;html=1;" parent="1" vertex="1">
                    <mxGeometry x="330" y="360" width="200" height="50" as="geometry"/>
                </mxCell>
                <mxCell id="output_array" value="แสดง Array: เรียกฟังก์ชัน isPrime ตรวจสอบ arr[i] ถ้าใช่พิมพ์ตัวเลข ถ้าไม่ใช่พิมพ์ #" style="parallelogram;whiteSpace=wrap;html=1;" parent="1" vertex="1">
                    <mxGeometry x="330" y="440" width="280" height="70" as="geometry"/>
                </mxCell>
                <mxCell id="stop" value="Stop" style="ellipse;whiteSpace=wrap;html=1;" parent="1" vertex="1">
                    <mxGeometry x="380" y="540" width="100" height="50" as="geometry"/>
                </mxCell>
                <mxCell id="edge_start_input" style="edgeStyle=orthogonalEdgeStyle;rounded=0;html=1;" parent="1" source="start" target="input_N" edge="1">
                    <mxGeometry relative="1" as="geometry"/>
                </mxCell>
                <mxCell id="edge_input_declare" style="edgeStyle=orthogonalEdgeStyle;rounded=0;html=1;" parent="1" source="input_N" target="declare_array" edge="1">
                    <mxGeometry relative="1" as="geometry"/>
                </mxCell>
                <mxCell id="edge_declare_loop" style="edgeStyle=orthogonalEdgeStyle;rounded=0;html=1;" parent="1" source="declare_array" target="loop_input" edge="1">
                    <mxGeometry relative="1" as="geometry"/>
                </mxCell>
                <mxCell id="edge_loop_outputIndex" style="edgeStyle=orthogonalEdgeStyle;rounded=0;html=1;" parent="1" source="loop_input" target="output_index" edge="1">
                    <mxGeometry relative="1" as="geometry"/>
                </mxCell>
                <mxCell id="edge_outputIndex_outputArray" style="edgeStyle=orthogonalEdgeStyle;rounded=0;html=1;" parent="1" source="output_index" target="output_array" edge="1">
                    <mxGeometry relative="1" as="geometry"/>
                </mxCell>
                <mxCell id="edge_outputArray_stop" style="edgeStyle=orthogonalEdgeStyle;rounded=0;html=1;" parent="1" source="output_array" target="stop" edge="1">
                    <mxGeometry relative="1" as="geometry"/>
                </mxCell>
            </root>
        </mxGraphModel>
    </diagram>
</mxfile>